<?xml version="1.0" standalone="no"?>
<!DOCTYPE svg PUBLIC "-//W3C//DTD SVG 20010904//EN"
 "http://www.w3.org/TR/2001/REC-SVG-20010904/DTD/svg10.dtd">
<svg version="1.0" xmlns="http://www.w3.org/2000/svg"
 width="962.000000pt" height="962.000000pt" viewBox="0 0 962.000000 962.000000"
 preserveAspectRatio="xMidYMid meet">
<metadata>
Created by potrace 1.11, written by Peter Selinger 2001-2013
</metadata>
<g transform="translate(0.000000,962.000000) scale(0.100000,-0.100000)"
fill="#000000" stroke="none">
<path d="M4569 9615 c-2 -2 -42 -6 -89 -9 -47 -4 -98 -9 -115 -11 -16 -3 -48
-7 -70 -9 -36 -4 -104 -15 -205 -31 -35 -6 -136 -26 -155 -31 -11 -3 -50 -12
-80 -18 -11 -2 -38 -9 -60 -15 -22 -6 -44 -11 -50 -12 -5 0 -26 -7 -45 -15
-19 -8 -36 -14 -38 -14 -8 4 -69 -14 -81 -24 -8 -6 -15 -9 -15 -7 -1 4 -22 -2
-94 -24 -7 -3 -13 -4 -15 -4 -1 0 -29 -12 -62 -26 -33 -15 -61 -26 -63 -25 -8
5 -222 -90 -367 -162 -165 -83 -234 -123 -402 -231 -40 -26 -75 -47 -78 -47
-3 0 -15 -8 -26 -19 -11 -10 -45 -36 -77 -57 -31 -21 -59 -41 -62 -44 -3 -3
-23 -18 -45 -35 -22 -16 -45 -34 -51 -40 -6 -5 -25 -21 -43 -35 -18 -13 -43
-33 -55 -45 -13 -11 -52 -45 -87 -75 -83 -71 -318 -306 -394 -394 -33 -37 -64
-73 -70 -80 -42 -48 -111 -133 -158 -196 -31 -41 -60 -79 -65 -85 -4 -5 -28
-39 -52 -75 -24 -36 -47 -66 -52 -68 -4 -2 -8 -10 -8 -18 0 -8 -4 -14 -10 -14
-5 0 -10 -5 -10 -11 0 -5 -18 -37 -40 -69 -22 -32 -40 -64 -40 -69 0 -6 -4
-11 -10 -11 -5 0 -10 -4 -10 -9 0 -7 -39 -77 -90 -161 -5 -8 -24 -44 -42 -80
-18 -36 -36 -66 -40 -68 -5 -2 -8 -10 -8 -17 0 -8 -9 -29 -19 -47 -11 -18 -38
-76 -61 -128 -23 -52 -48 -109 -55 -125 -17 -38 -37 -87 -41 -100 -3 -11 -81
-222 -91 -245 -3 -8 -7 -19 -9 -25 -10 -39 -55 -183 -61 -195 -3 -8 -6 -18 -5
-22 1 -3 -6 -30 -14 -59 -9 -29 -17 -60 -19 -68 -2 -9 -14 -61 -28 -116 -14
-55 -28 -120 -33 -145 -9 -50 -11 -59 -13 -62 -2 -2 -4 -15 -6 -29 -5 -35 -13
-92 -25 -159 -11 -71 -20 -132 -26 -195 -2 -27 -7 -65 -9 -84 -20 -136 -27
-699 -11 -891 4 -52 9 -113 11 -135 2 -22 6 -62 9 -90 4 -27 9 -70 12 -95 3
-25 7 -52 9 -60 2 -8 7 -34 10 -57 10 -73 40 -236 49 -268 3 -11 15 -69 21
-100 2 -11 4 -20 6 -20 1 0 3 -9 5 -20 4 -26 7 -40 44 -170 48 -170 107 -347
166 -497 30 -75 54 -142 54 -147 0 -6 4 -11 8 -11 5 0 9 -6 9 -12 0 -7 22 -58
49 -113 26 -55 48 -102 49 -105 1 -6 46 -90 87 -165 15 -27 33 -61 40 -75 34
-66 223 -365 250 -394 10 -11 18 -23 18 -27 0 -4 6 -14 13 -21 7 -7 33 -40 57
-73 60 -80 150 -195 175 -221 11 -12 40 -45 65 -75 74 -90 461 -469 477 -469
5 0 46 -34 115 -96 14 -13 29 -24 33 -24 3 0 11 -5 18 -10 51 -44 69 -57 122
-93 33 -22 62 -43 65 -47 3 -3 30 -21 60 -40 30 -19 57 -37 60 -40 36 -41 612
-340 653 -340 7 0 17 -4 22 -9 15 -14 324 -125 380 -137 11 -2 31 -8 45 -13
58 -22 245 -66 388 -92 187 -33 219 -38 412 -55 104 -10 536 -10 645 -1 216
18 242 22 405 51 193 36 188 35 270 57 41 11 84 22 95 23 11 2 27 6 35 9 27
10 180 59 193 61 14 3 17 5 182 68 240 94 466 206 664 329 51 33 97 59 101 59
5 0 10 3 12 8 2 4 37 30 78 57 41 28 101 70 135 94 l60 44 -28 10 c-15 5 -27
13 -27 18 0 5 -9 9 -19 9 -11 0 -21 5 -23 12 -3 7 -22 -1 -52 -23 -27 -19 -56
-39 -65 -44 -9 -6 -57 -37 -106 -70 -104 -69 -104 -69 -207 -130 -115 -67
-452 -235 -474 -235 -3 0 -24 -8 -47 -19 -167 -74 -482 -168 -722 -215 -11 -2
-31 -7 -45 -10 -30 -7 -96 -17 -130 -21 -38 -4 -130 -16 -153 -21 -136 -26
-743 -25 -891 2 -12 2 -41 6 -66 8 -52 6 -91 12 -140 21 -19 4 -46 8 -60 10
-24 4 -104 20 -145 30 -34 8 -69 16 -95 21 -100 19 -447 135 -590 197 -14 5
-27 11 -30 12 -24 5 -342 165 -408 204 -29 17 -57 31 -62 31 -6 0 -10 5 -10
10 0 6 -6 10 -13 10 -6 0 -34 16 -61 35 -27 19 -55 35 -63 35 -7 0 -13 4 -13
9 0 5 -21 22 -47 37 -26 15 -52 31 -58 36 -5 5 -60 46 -121 91 -107 79 -129
96 -238 190 -203 173 -410 391 -585 613 -39 49 -74 94 -78 99 -59 72 -258 370
-270 403 -4 9 -9 19 -13 22 -7 5 -86 144 -119 209 -12 23 -16 32 -60 118 -69
138 -151 326 -151 348 0 8 -5 15 -12 15 -6 0 -9 3 -5 6 3 4 0 18 -7 33 -7 14
-28 71 -46 126 -18 55 -36 109 -41 120 -23 56 -119 414 -133 495 -3 14 -5 25
-6 25 -1 0 -4 14 -6 30 -2 17 -11 60 -19 97 -8 37 -15 71 -14 75 1 5 0 10 -1
13 -2 6 -8 43 -14 90 -3 19 -7 51 -10 71 -32 241 -40 370 -40 684 -1 149 3
308 7 355 4 47 9 105 11 130 3 25 8 70 11 100 4 30 9 69 11 85 11 100 15 125
24 170 5 28 12 64 15 80 2 17 8 44 11 60 4 17 8 39 10 50 1 11 3 20 4 20 1 0
4 13 6 30 3 16 17 73 30 125 14 52 28 106 30 120 6 31 49 174 76 255 24 71 26
78 24 86 0 3 5 13 13 22 7 10 10 17 6 17 -4 0 -3 6 2 13 6 6 13 26 17 42 4 17
14 44 21 60 8 17 31 73 53 125 54 132 125 284 134 288 5 2 8 8 8 14 0 10 96
193 157 298 43 75 214 331 263 395 26 33 63 82 83 108 20 26 42 54 49 61 7 7
24 28 38 46 28 38 65 80 160 183 179 194 380 376 580 525 52 39 100 76 107 82
7 5 15 10 18 10 3 0 30 18 59 40 29 22 57 40 62 40 5 0 22 11 38 25 16 14 35
25 43 25 7 0 13 4 13 8 0 4 19 18 43 30 23 12 62 34 87 48 81 47 310 163 310
157 0 -3 6 -1 13 6 18 15 203 91 222 91 8 0 15 5 15 10 0 6 6 10 14 10 8 0 27
5 43 12 15 6 32 10 36 10 4 -1 21 5 37 13 16 8 39 17 52 19 13 3 24 5 26 7 1
1 5 2 10 4 4 1 14 4 22 7 47 16 159 47 233 64 9 2 26 6 37 9 29 7 58 13 190
40 14 3 41 7 60 10 19 2 44 6 55 9 11 2 49 7 85 11 36 4 74 9 85 11 60 12 218
19 440 18 222 0 309 -4 435 -19 19 -3 58 -7 85 -10 28 -4 57 -8 65 -10 8 -2
35 -7 60 -10 58 -8 333 -66 342 -71 7 -5 109 -33 133 -38 6 -1 16 -5 23 -9 6
-5 12 -6 12 -4 0 9 329 -110 422 -152 26 -12 49 -21 50 -21 3 1 255 -126 293
-147 55 -32 251 -148 260 -155 6 -4 48 -33 95 -64 47 -32 87 -60 90 -63 3 -4
17 -14 31 -23 21 -13 114 -86 202 -158 139 -114 332 -299 457 -440 36 -40 70
-78 75 -84 6 -6 28 -33 50 -61 22 -27 43 -52 46 -55 3 -3 23 -27 44 -55 20
-27 40 -52 44 -55 3 -3 11 -12 16 -21 6 -10 37 -54 70 -100 33 -46 65 -91 70
-100 6 -9 19 -29 29 -45 10 -16 34 -51 52 -79 18 -27 38 -62 45 -77 7 -16 15
-28 18 -28 3 0 17 -25 31 -55 14 -30 28 -55 33 -55 4 0 7 -6 7 -14 0 -7 7 -19
15 -26 9 -7 13 -15 11 -18 -3 -2 6 -22 20 -43 13 -21 21 -39 17 -39 -5 0 -3
-4 2 -8 13 -8 56 -97 130 -267 97 -222 190 -494 250 -730 5 -16 9 -34 11 -40
3 -11 5 -18 33 -140 26 -116 59 -295 67 -365 9 -72 12 -95 14 -95 0 0 3 -22 5
-50 3 -27 7 -68 10 -90 26 -205 26 -854 0 -1018 -2 -12 -7 -49 -10 -82 -15
-128 -18 -150 -34 -240 -6 -33 -13 -76 -16 -95 -3 -19 -11 -55 -16 -80 -6 -25
-12 -56 -14 -70 -2 -14 -16 -72 -30 -130 -15 -58 -29 -112 -30 -120 -2 -8 -4
-15 -5 -15 -1 0 -3 -8 -6 -17 -6 -28 -10 -40 -24 -88 -7 -25 -14 -49 -15 -55
-7 -32 -114 -336 -134 -380 -5 -11 -18 -40 -28 -65 -10 -25 -37 -84 -60 -132
-23 -49 -39 -88 -35 -88 4 0 2 -4 -4 -8 -6 -4 -25 -36 -43 -72 -45 -89 -90
-170 -112 -202 -11 -14 -19 -29 -19 -33 0 -3 -17 -32 -37 -63 -21 -32 -44 -66
-51 -77 -53 -84 -61 -95 -165 -237 -131 -179 -110 -165 -209 -133 -161 54
-372 170 -476 264 -107 96 -176 166 -252 256 -14 17 -48 57 -75 90 -28 33 -89
110 -135 170 -47 61 -89 115 -95 122 -15 18 -29 37 -40 55 -22 35 -181 254
-197 272 -10 11 -18 26 -18 33 0 7 -3 13 -7 13 -5 0 -24 25 -43 55 -19 30 -38
55 -42 55 -5 0 -8 5 -8 10 0 6 -36 64 -80 130 -44 66 -80 124 -80 130 0 5 -4
10 -8 10 -4 0 -23 26 -42 57 -19 32 -38 60 -42 61 -5 2 -8 10 -8 18 0 8 -4 14
-9 14 -5 0 -14 13 -21 30 -7 16 -16 30 -21 30 -5 0 -9 5 -9 10 0 6 -30 57 -67
113 -38 57 -73 112 -80 123 -6 10 -35 57 -64 104 -29 47 -57 87 -61 88 -4 2
-8 7 -8 12 0 8 -121 205 -140 227 -5 7 -10 16 -10 20 0 4 -16 33 -35 63 -36
55 -43 80 -24 80 31 0 428 216 459 250 3 3 34 28 70 55 211 161 371 345 483
556 35 65 87 191 96 231 1 4 8 26 16 49 8 23 13 45 10 49 -3 5 -1 11 5 15 5 3
10 16 10 29 0 12 3 25 6 29 4 3 8 26 10 49 2 24 6 54 9 68 4 14 8 95 10 180 4
156 -6 281 -29 380 -3 14 -8 36 -10 50 -25 129 -108 328 -191 455 -152 233
-391 421 -688 541 -93 38 -127 49 -207 70 -51 14 -190 45 -215 48 -16 3 -43 7
-60 10 -27 5 -75 11 -160 21 -33 4 -190 14 -305 20 -56 3 -2390 8 -2627 5
l-41 0 -1 -129 c-1 -144 0 -147 65 -150 23 -1 52 -4 65 -6 13 -3 44 -7 69 -10
126 -15 282 -45 295 -56 5 -5 18 -9 30 -9 32 0 118 -46 167 -89 34 -30 87
-109 94 -141 0 -3 3 -12 7 -20 6 -17 18 -66 24 -95 10 -62 14 -88 20 -170 9
-115 9 -4213 0 -4362 -4 -61 -12 -133 -18 -160 -6 -26 -12 -57 -15 -68 -16
-82 -119 -224 -161 -225 -7 0 -13 -4 -13 -8 0 -4 -10 -8 -22 -9 -11 -1 -24 -6
-27 -11 -5 -8 -98 -37 -154 -48 -49 -10 -84 -15 -117 -19 -19 -3 -45 -6 -57
-9 -12 -3 -53 -8 -90 -12 -37 -3 -88 -9 -113 -13 l-45 -6 0 -135 0 -135 1245
-1 c685 0 1250 1 1255 3 6 2 10 55 10 135 l-1 133 -105 12 c-106 12 -178 21
-214 27 -11 2 -40 7 -64 10 -23 4 -54 11 -67 16 -13 5 -24 8 -24 6 0 -9 -130
44 -170 69 -48 30 -110 94 -110 113 0 6 -4 12 -9 12 -8 0 -62 151 -60 167 1 5
0 10 -1 13 -4 10 -9 57 -13 111 -2 31 -6 60 -9 65 -3 5 -6 401 -6 880 -1 816
0 872 16 876 25 6 437 2 534 -6 201 -15 303 -54 405 -153 54 -53 183 -230 183
-251 0 -5 7 -15 15 -22 8 -6 30 -40 50 -73 19 -34 40 -69 45 -77 22 -34 134
-217 150 -245 10 -16 41 -68 70 -115 29 -47 59 -96 67 -110 8 -14 26 -44 41
-67 15 -23 47 -75 71 -114 24 -40 55 -89 68 -108 30 -46 26 -40 134 -206 88
-134 318 -462 349 -496 8 -10 33 -38 55 -64 116 -137 245 -253 370 -335 79
-51 233 -130 255 -130 5 0 18 -4 28 -9 17 -10 48 -22 67 -27 6 -1 37 -10 70
-19 33 -9 78 -19 100 -21 21 -3 44 -8 49 -12 6 -3 17 -7 26 -7 28 -3 134 -17
155 -21 11 -2 49 -6 85 -9 36 -2 99 -8 140 -11 41 -4 90 -7 108 -8 17 0 32 -3
32 -6 0 -3 43 -5 95 -5 52 0 95 3 95 6 0 3 8 14 18 25 9 10 54 66 100 124 45
58 86 110 90 115 10 12 60 82 80 111 12 19 103 155 122 184 26 39 100 161 100
164 0 2 17 33 38 67 21 35 55 100 77 144 22 44 44 83 48 86 5 3 9 10 9 15 0 5
15 41 32 79 42 91 59 129 61 135 1 3 6 16 12 30 53 125 159 418 183 505 4 17
22 80 38 141 17 61 33 122 36 135 25 115 75 363 80 399 4 25 9 59 12 75 7 46
24 190 29 250 2 22 4 40 5 40 0 0 4 45 8 100 14 215 5 792 -14 890 -2 11 -7
48 -9 81 -3 34 -7 70 -9 80 -4 18 -13 77 -22 139 -4 27 -9 57 -30 170 -3 17
-16 82 -30 145 -15 63 -28 121 -29 130 -8 37 -86 301 -105 355 -11 33 -22 67
-25 75 -37 141 -261 644 -346 780 -9 14 -33 54 -53 90 -41 73 -42 76 -108 178
-27 40 -48 77 -48 82 0 5 -4 10 -8 12 -5 2 -28 32 -52 68 -44 65 -94 132 -117
158 -7 7 -13 17 -13 20 0 4 -10 18 -23 32 -12 14 -42 50 -67 80 -25 30 -49 60
-55 66 -5 6 -35 40 -65 75 -69 81 -313 324 -405 405 -129 114 -348 284 -364
284 -5 0 -11 4 -13 8 -1 5 -37 31 -78 58 -41 27 -76 52 -78 57 -2 4 -7 7 -12
7 -5 0 -44 22 -87 48 -171 106 -461 251 -609 305 -21 8 -82 31 -134 50 -52 19
-129 45 -170 58 -41 12 -84 25 -95 30 -21 8 -131 36 -175 45 -14 3 -38 9 -55
14 -16 5 -46 11 -65 14 -19 3 -67 12 -106 20 -39 8 -92 17 -116 19 -25 2 -49
6 -54 9 -5 2 -25 5 -44 6 -19 1 -51 5 -70 7 -19 3 -55 8 -80 10 -56 6 -607 15
-611 10z m303 -2269 c115 -9 181 -17 193 -24 5 -3 22 -7 39 -9 31 -3 157 -38
191 -52 11 -5 45 -19 75 -31 71 -29 230 -119 230 -131 0 -5 7 -9 16 -9 23 0
204 -184 253 -257 78 -116 167 -324 184 -430 3 -15 8 -39 11 -53 28 -124 39
-371 23 -555 -34 -412 -190 -709 -498 -946 -155 -120 -255 -170 -429 -214
-195 -49 -268 -56 -707 -60 l-342 -3 3 1237 c3 1045 6 1275 15 1299 1 1 1 5 2
10 0 4 5 13 11 20 6 6 8 12 4 12 -13 0 25 61 57 91 72 69 159 93 377 105 58 4
106 7 107 8 3 2 102 -2 185 -8z"/>
</g>
</svg>
