<svg id="Ebene_1" data-name="Ebene 1" xmlns="http://www.w3.org/2000/svg" viewBox="0 0 882.8 962.43"><defs><style>.cls-1{stroke:#fff;stroke-miterlimit:10;}</style></defs><path class="cls-1" d="M1319.81,835.74a484.86,484.86,0,0,0,84.88-142,522.64,522.64,0,0,0,0-374A483.73,483.73,0,0,0,1310.3,167c-40.49-44.18-87.64-78.88-140.15-103.12a408.76,408.76,0,0,0-343.53,0C774.1,88.08,727,122.78,686.47,167a483.73,483.73,0,0,0-94.39,152.78,522.5,522.5,0,0,0,0,374,483.78,483.78,0,0,0,94.39,152.79C727,890.66,774.1,925.35,826.62,949.59a408.76,408.76,0,0,0,343.53,0,429.83,429.83,0,0,0,80.73-48.7l-9.47-5.38a419.31,419.31,0,0,1-75.45,45,398.76,398.76,0,0,1-335.15,0c-51.3-23.68-97.39-57.59-137-100.79A473.7,473.7,0,0,1,601.4,690.08a512.58,512.58,0,0,1,0-366.73,473.82,473.82,0,0,1,92.44-149.64c39.58-43.2,85.67-77.11,137-100.79a398.76,398.76,0,0,1,335.15,0c51.3,23.68,97.38,57.59,137,100.79a473.66,473.66,0,0,1,92.45,149.64,512.72,512.72,0,0,1,0,366.73c-17,44-41.17,83.59-69.82,119.53-21.29-5.74-47.28-16.93-72-43.49-21.55-23.42-39.34-46.84-74-96.49-28.1-42.16-68.38-104.92-85.24-134,69.32-30,120.84-80.56,120.84-161.13,0-57.14-25.29-99.3-63.7-123.65-35.6-23.42-81.5-31.85-149.88-31.85H762.67v26.23c74,8.43,84.31,11.24,84.31,90.86V709.91c0,79.63-6.56,83.37-84.31,91.8V828h250.12V801.71c-74.95-7.49-85.25-12.17-85.25-91.8V562.84h32.79c47.77,0,59.95,5.62,78.69,35.59,30,47.78,63.7,106.8,98.36,154.57,41.22,58.08,77.75,75.88,146.14,80.57C1283.52,833.57,1310.5,836.5,1319.81,835.74ZM1075.55,503.82c-23.42,19.67-54.33,27.17-103,27.17h-45V301.47c0-24.35,2.81-33.72,11.24-40.28,6.56-5.62,22.48-9.37,49.65-9.37,72.13,0,138.64,36.54,138.64,136.77C1127.07,439.18,1112.09,476.65,1075.55,503.82Z" transform="translate(-556.98 -25.5)"/></svg>